<?xml version="1.0" encoding="utf-8"?>
<!-- Generator: Adobe Illustrator 27.0.0, SVG Export Plug-In . SVG Version: 6.00 Build 0)  -->
<svg version="1.1" id="Calque_1" xmlns="http://www.w3.org/2000/svg" xmlns:xlink="http://www.w3.org/1999/xlink" x="0px" y="0px"
	 viewBox="0 0 1254 1255" style="enable-background:new 0 0 1254 1255;" xml:space="preserve">
<style type="text/css">
	.st0{opacity:0.993;fill-rule:evenodd;clip-rule:evenodd;fill:#00E389;enable-background:new    ;}
	.st1{opacity:0.993;fill-rule:evenodd;clip-rule:evenodd;fill:#5043FF;enable-background:new    ;}
</style>
<g>
	<path class="st0" d="M590.5,244.5c0,0.3,0,0.7,0,1c-48-1-96-1.2-144-0.5c-10.4,2.7-17.2,9.2-20.5,19.5c-0.7,72.7-0.6,145.3,0.5,218
		c3.4,33.3-5.1,63-25.5,89c-17.1,18.4-38.3,28.8-63.5,31c0,2.7,0,5.3,0,8c41.2,3.4,69,24.4,83.5,63c1.8,6.6,3.2,13.2,4,20
		c0.3,84.3,0.7,168.7,1,253c3.2,11.2,10.3,18.3,21.5,21.5c47.7,0.6,95.3,0.4,143-0.5c0,45.7,0,91.3,0,137c-53-0.6-106-1.1-159-1.5
		c-18.7-0.1-37.4-0.8-56-2c-53.2-9.8-87.3-40.7-102.5-92.5c-1.3-5.6-2.3-11.3-3-17c-0.7-98.4-1.7-196.7-3-295
		c-3.1-9.4-9.2-15.9-18.5-19.5c-21.6-1.6-43.3-2.8-65-3.5c0-45,0-90,0-135c18.3,0.2,36.7,0,55-0.5c16-2.4,26.5-11.2,31.5-26.5
		c1.3-97.6,2-195.3,2-293c12.1-62.1,49.6-97.6,112.5-106.5c68.6-1.5,137.3-2,206-1.5C590.5,155.2,590.5,199.8,590.5,244.5z"/>
</g>
<g>
	<path class="st1" d="M590.5,244.5c74-0.2,148,0,222,0.5c85.8,8.8,150.7,50,194.5,123.5c27.1,51.8,37.1,106.8,30,165
		c-10,90.3-55.5,155.4-136.5,195.5c51.3,78.7,102.7,157.3,154,236c-61,0.7-122,0.7-183,0c-38.4-67.4-76.4-135.1-114-203
		c-55.7-0.5-111.3-0.7-167-0.5c0-46,0-92,0-138c62.7,0.2,125.3,0,188-0.5c55.6-10.6,90.1-43.5,103.5-98.5c6.2-38.7-2.1-73.7-25-105
		c-19.8-23.3-45-36.8-75.5-40.5c-63.7-0.5-127.3-0.7-191-0.5c0-44.3,0-88.7,0-133C590.5,245.2,590.5,244.8,590.5,244.5z"/>
</g>
</svg>
